<svg width="38" height="39" viewBox="0 0 38 39" fill="none" xmlns="http://www.w3.org/2000/svg">
<path fill-rule="evenodd" clip-rule="evenodd" d="M22.1667 4.875C22.9656 4.87474 23.7351 5.18441 24.3209 5.74193C24.9067 6.29945 25.2655 7.06362 25.3254 7.88125L25.3333 8.125V9.83937L31.0982 11.4254C31.8702 11.6374 32.5354 12.1411 32.9606 12.8355C33.3858 13.5299 33.5395 14.3636 33.3909 15.1694L33.3371 15.405L29.2394 31.1025C29.0325 31.8944 28.5415 32.5768 27.865 33.0129C27.1885 33.449 26.3763 33.6065 25.5914 33.4539L25.3618 33.4003L24.4324 33.1451C23.9226 33.6814 23.2307 34.0389 22.4596 34.112L22.1667 34.125H7.91667C7.11775 34.1253 6.34827 33.8156 5.76247 33.2581C5.17666 32.7005 4.81784 31.9364 4.75792 31.1187L4.75 30.875V8.125C4.74975 7.30506 5.05148 6.51533 5.5947 5.91411C6.13793 5.31289 6.8825 4.94462 7.67917 4.88313L7.91667 4.875H22.1667ZM22.1667 8.125H7.91667V30.875H22.1667V8.125ZM25.3333 13.2048V30.0284L26.1804 30.2607L30.2797 14.5632L25.3333 13.2048Z" fill="url(#paint0_linear_230_3365)"/>
<defs>
<linearGradient id="paint0_linear_230_3365" x1="19.0981" y1="4.875" x2="19.0981" y2="34.125" gradientUnits="userSpaceOnUse">
<stop stop-color="#B49BFF"/>
<stop offset="1" stop-color="#B49BFF" stop-opacity="0"/>
</linearGradient>
</defs>
</svg>
