<svg width="38" height="39" viewBox="0 0 38 39" fill="none" xmlns="http://www.w3.org/2000/svg">
<path fill-rule="evenodd" clip-rule="evenodd" d="M16.139 15.6304L19.0001 11.0529L21.8612 15.6304C21.9591 15.787 22.0881 15.9219 22.2404 16.0265C22.3926 16.1312 22.5648 16.2033 22.7462 16.2385C22.9275 16.2737 23.1142 16.2712 23.2945 16.2311C23.4749 16.1911 23.645 16.1143 23.7944 16.0056L29.9378 11.5374L27.5786 23.9286C27.5613 24.0189 27.5132 24.1004 27.4424 24.159C27.3716 24.2176 27.2826 24.2498 27.1907 24.25H10.8111C10.7189 24.2502 10.6295 24.2182 10.5584 24.1595C10.4873 24.1008 10.4389 24.0192 10.4216 23.9286L8.06243 11.5359L14.2058 16.004C14.3551 16.1125 14.5251 16.189 14.7053 16.2289C14.8855 16.2689 15.072 16.2713 15.2531 16.2361C15.4343 16.2009 15.6063 16.1288 15.7584 16.0244C15.9105 15.9199 16.0395 15.7852 16.1374 15.6288M20.1401 8.39611C20.0191 8.20241 19.8509 8.04267 19.6512 7.93192C19.4515 7.82117 19.2269 7.76306 18.9985 7.76306C18.7701 7.76306 18.5455 7.82117 18.3458 7.93192C18.1461 8.04267 17.9779 8.20241 17.8569 8.39611L14.7093 13.4359L7.35626 8.08736C6.36984 7.37011 5.01293 8.22986 5.24251 9.42686L8.08776 24.3735C8.20866 25.0071 8.54682 25.5787 9.04396 25.9897C9.5411 26.4007 10.1661 26.6254 10.8111 26.625H27.1907C27.8357 26.625 28.4604 26.3999 28.9573 25.9886C29.4541 25.5773 29.7919 25.0056 29.9124 24.3719L32.7577 9.42686C32.9873 8.22986 31.6319 7.36853 30.6455 8.08736L23.2909 13.4359L20.1401 8.39611ZM9.50009 29C9.18515 29 8.8831 29.1251 8.6604 29.3478C8.4377 29.5705 8.31259 29.8726 8.31259 30.1875C8.31259 30.5025 8.4377 30.8045 8.6604 31.0272C8.8831 31.2499 9.18515 31.375 9.50009 31.375H28.5001C28.815 31.375 29.1171 31.2499 29.3398 31.0272C29.5625 30.8045 29.6876 30.5025 29.6876 30.1875C29.6876 29.8726 29.5625 29.5705 29.3398 29.3478C29.1171 29.1251 28.815 29 28.5001 29H9.50009Z" fill="url(#paint0_linear_230_3631)"/>
<defs>
<linearGradient id="paint0_linear_230_3631" x1="19.0001" y1="7.76306" x2="19.0001" y2="31.375" gradientUnits="userSpaceOnUse">
<stop stop-color="#B49BFF"/>
<stop offset="1" stop-color="#B49BFF" stop-opacity="0"/>
</linearGradient>
</defs>
</svg>
