<svg width="38" height="38" viewBox="0 0 38 38" fill="none" xmlns="http://www.w3.org/2000/svg">
<path fill-rule="evenodd" clip-rule="evenodd" d="M16.1389 15.1305L19 10.5531L21.8611 15.1305C21.959 15.2872 22.088 15.422 22.2403 15.5267C22.3926 15.6313 22.5647 15.7035 22.7461 15.7387C22.9274 15.7739 23.1141 15.7713 23.2944 15.7313C23.4748 15.6912 23.645 15.6144 23.7943 15.5057L29.9377 11.0376L27.5785 23.4287C27.5612 23.519 27.5131 23.6005 27.4423 23.6591C27.3715 23.7178 27.2825 23.75 27.1906 23.7502H10.811C10.7188 23.7503 10.6294 23.7183 10.5583 23.6596C10.4872 23.6009 10.4388 23.5193 10.4215 23.4287L8.06234 11.036L14.2057 15.5042C14.355 15.6126 14.525 15.6891 14.7052 15.7291C14.8854 15.769 15.0719 15.7714 15.253 15.7362C15.4342 15.701 15.6062 15.629 15.7583 15.5245C15.9104 15.42 16.0395 15.2854 16.1373 15.1289M20.14 7.89624C20.0191 7.70253 19.8508 7.54279 19.6511 7.43204C19.4514 7.32129 19.2268 7.26318 18.9984 7.26318C18.7701 7.26318 18.5454 7.32129 18.3457 7.43204C18.146 7.54279 17.9778 7.70253 17.8568 7.89624L14.7092 12.936L7.35617 7.58749C6.36975 6.87024 5.01284 7.72999 5.24242 8.92699L8.08767 23.8737C8.20857 24.5073 8.54673 25.0788 9.04387 25.4898C9.54101 25.9008 10.166 26.1255 10.811 26.1252H27.1906C27.8356 26.1251 28.4603 25.9 28.9572 25.4887C29.454 25.0774 29.7918 24.5057 29.9123 23.8721L32.7576 8.92699C32.9872 7.72999 31.6318 6.86865 30.6454 7.58749L23.2908 12.936L20.14 7.89624ZM9.5 28.5002C9.18506 28.5002 8.88301 28.6253 8.66031 28.848C8.43761 29.0707 8.3125 29.3727 8.3125 29.6877C8.3125 30.0026 8.43761 30.3046 8.66031 30.5273C8.88301 30.75 9.18506 30.8752 9.5 30.8752H28.5C28.8149 30.8752 29.117 30.75 29.3397 30.5273C29.5624 30.3046 29.6875 30.0026 29.6875 29.6877C29.6875 29.3727 29.5624 29.0707 29.3397 28.848C29.117 28.6253 28.8149 28.5002 28.5 28.5002H9.5Z" fill="url(#paint0_linear_10095_1160)"/>
<defs>
<linearGradient id="paint0_linear_10095_1160" x1="5.21671" y1="18.7319" x2="32.7833" y2="18.7319" gradientUnits="userSpaceOnUse">
<stop stop-color="#FCA20D"/>
<stop offset="1" stop-color="#FFCD0C"/>
</linearGradient>
</defs>
</svg>
