<svg width="30" height="31" viewBox="0 0 30 31" fill="none" xmlns="http://www.w3.org/2000/svg">
<path fill-rule="evenodd" clip-rule="evenodd" d="M17.986 0.875C18.7849 0.874741 19.5544 1.18441 20.1402 1.74193C20.726 2.29945 21.0848 3.06362 21.1448 3.88125L21.1527 4.125V5.83937L26.9176 7.42537C27.6895 7.63742 28.3548 8.14113 28.78 8.83551C29.2052 9.52988 29.3589 10.3636 29.2103 11.1694L29.1564 11.405L25.0588 27.1025C24.8518 27.8944 24.3609 28.5768 23.6843 29.0129C23.0078 29.449 22.1957 29.6065 21.4108 29.4539L21.1812 29.4003L20.2518 29.1451C19.7419 29.6814 19.05 30.0389 18.2789 30.112L17.986 30.125H3.736C2.93709 30.1253 2.16761 29.8156 1.5818 29.2581C0.995998 28.7005 0.637171 27.9364 0.577253 27.1187L0.569336 26.875V4.125C0.569083 3.30506 0.870813 2.51533 1.41404 1.91411C1.95727 1.31289 2.70184 0.944621 3.4985 0.883125L3.736 0.875H17.986ZM17.986 4.125H3.736V26.875H17.986V4.125ZM21.1527 9.20475V26.0284L21.9998 26.2607L26.099 10.5632L21.1527 9.20475Z" fill="url(#paint0_linear_251_3822)"/>
<defs>
<linearGradient id="paint0_linear_251_3822" x1="14.9174" y1="0.875" x2="14.9174" y2="30.125" gradientUnits="userSpaceOnUse">
<stop stop-color="#FF9B9B"/>
<stop offset="1" stop-color="#FF9B9B" stop-opacity="0"/>
</linearGradient>
</defs>
</svg>
