<svg width="28" height="24" viewBox="0 0 28 24" fill="none" xmlns="http://www.w3.org/2000/svg">
<path fill-rule="evenodd" clip-rule="evenodd" d="M10.9583 8.13036L13.8194 3.55295L16.6805 8.13036C16.7784 8.28705 16.9075 8.42191 17.0597 8.52654C17.212 8.63117 17.3842 8.70333 17.5655 8.73853C17.7469 8.77373 17.9335 8.77122 18.1139 8.73115C18.2942 8.69108 18.4644 8.61431 18.6138 8.50562L24.7571 4.03745L22.3979 16.4286C22.3806 16.5189 22.3325 16.6004 22.2617 16.659C22.1909 16.7176 22.1019 16.7498 22.01 16.75H5.63043C5.53824 16.7502 5.44887 16.7182 5.37777 16.6595C5.30666 16.6008 5.25826 16.5192 5.24093 16.4286L2.88176 4.03586L9.0251 8.50403C9.17443 8.61246 9.34448 8.68902 9.52466 8.72894C9.70483 8.76887 9.8913 8.77131 10.0725 8.73612C10.2536 8.70092 10.4256 8.62885 10.5777 8.52437C10.7299 8.41989 10.8589 8.28524 10.9568 8.12878M14.9594 0.896115C14.8385 0.70241 14.6702 0.542666 14.4705 0.431918C14.2708 0.32117 14.0462 0.263062 13.8178 0.263062C13.5895 0.263062 13.3649 0.32117 13.1652 0.431918C12.9655 0.542666 12.7972 0.70241 12.6763 0.896115L9.5286 5.93586L2.1756 0.587365C1.18918 -0.129885 -0.167737 0.729865 0.0618461 1.92686L2.9071 16.8735C3.02799 17.5071 3.36616 18.0787 3.8633 18.4897C4.36044 18.9007 4.98539 19.1254 5.63043 19.125H22.01C22.655 19.125 23.2798 18.8999 23.7766 18.4886C24.2734 18.0773 24.6112 17.5056 24.7318 16.8719L27.577 1.92686C27.8066 0.729865 26.4513 -0.131469 25.4648 0.587365L18.1103 5.93586L14.9594 0.896115ZM4.31943 21.5C4.00448 21.5 3.70244 21.6251 3.47974 21.8478C3.25704 22.0705 3.13193 22.3726 3.13193 22.6875C3.13193 23.0025 3.25704 23.3045 3.47974 23.5272C3.70244 23.7499 4.00448 23.875 4.31943 23.875H23.3194C23.6344 23.875 23.9364 23.7499 24.1591 23.5272C24.3818 23.3045 24.5069 23.0025 24.5069 22.6875C24.5069 22.3726 24.3818 22.0705 24.1591 21.8478C23.9364 21.6251 23.6344 21.5 23.3194 21.5H4.31943Z" fill="url(#paint0_linear_251_3365)"/>
<defs>
<linearGradient id="paint0_linear_251_3365" x1="13.8194" y1="0.263062" x2="13.8194" y2="23.875" gradientUnits="userSpaceOnUse">
<stop stop-color="#FF9B9B"/>
<stop offset="1" stop-color="#FF9B9B" stop-opacity="0"/>
</linearGradient>
</defs>
</svg>
