<svg width="33" height="32" viewBox="0 0 33 32" fill="none" xmlns="http://www.w3.org/2000/svg">
<path d="M16.8193 27.52C12.8193 27.52 9.28334 25.472 7.21934 22.4C7.26734 19.2 13.6193 17.44 16.8193 17.44C20.0193 17.44 26.3713 19.2 26.4193 22.4C25.3616 23.9751 23.9327 25.2658 22.2586 26.1587C20.5846 27.0515 18.7166 27.519 16.8193 27.52ZM16.8193 4.8C18.0924 4.8 19.3133 5.30571 20.2134 6.20589C21.1136 7.10606 21.6193 8.32696 21.6193 9.6C21.6193 10.873 21.1136 12.0939 20.2134 12.9941C19.3133 13.8943 18.0924 14.4 16.8193 14.4C15.5463 14.4 14.3254 13.8943 13.4252 12.9941C12.525 12.0939 12.0193 10.873 12.0193 9.6C12.0193 8.32696 12.525 7.10606 13.4252 6.20589C14.3254 5.30571 15.5463 4.8 16.8193 4.8ZM16.8193 0C14.7182 0 12.6376 0.413852 10.6964 1.21793C8.75519 2.022 6.99136 3.20055 5.50563 4.68629C2.50505 7.68687 0.819336 11.7565 0.819336 16C0.819336 20.2435 2.50505 24.3131 5.50563 27.3137C6.99136 28.7994 8.75519 29.978 10.6964 30.7821C12.6376 31.5861 14.7182 32 16.8193 32C21.0628 32 25.1325 30.3143 28.133 27.3137C31.1336 24.3131 32.8193 20.2435 32.8193 16C32.8193 7.152 25.6193 0 16.8193 0Z" fill="url(#paint0_linear_251_3329)"/>
<defs>
<linearGradient id="paint0_linear_251_3329" x1="16.8193" y1="0" x2="16.8193" y2="32" gradientUnits="userSpaceOnUse">
<stop stop-color="#E5D11C"/>
<stop offset="1" stop-color="#9D6900"/>
</linearGradient>
</defs>
</svg>
