<svg width="25" height="25" viewBox="0 0 25 25" fill="none" xmlns="http://www.w3.org/2000/svg">
<path d="M17.3914 18.5C17.9218 18.5 18.4305 18.7107 18.8056 19.0858C19.1806 19.4609 19.3914 19.9696 19.3914 20.5C19.3914 21.0304 19.1806 21.5391 18.8056 21.9142C18.4305 22.2893 17.9218 22.5 17.3914 22.5C16.8609 22.5 16.3522 22.2893 15.9771 21.9142C15.6021 21.5391 15.3914 21.0304 15.3914 20.5C15.3914 19.39 16.2814 18.5 17.3914 18.5ZM1.39136 2.5H4.66136L5.60136 4.5H20.3914C20.6566 4.5 20.9109 4.60536 21.0985 4.79289C21.286 4.98043 21.3914 5.23478 21.3914 5.5C21.3914 5.67 21.3414 5.84 21.2714 6L17.6914 12.47C17.3514 13.08 16.6914 13.5 15.9414 13.5H8.49136L7.59136 15.13L7.56136 15.25C7.56136 15.3163 7.5877 15.3799 7.63458 15.4268C7.68146 15.4737 7.74505 15.5 7.81136 15.5H19.3914V17.5H7.39136C6.86092 17.5 6.35222 17.2893 5.97714 16.9142C5.60207 16.5391 5.39136 16.0304 5.39136 15.5C5.39136 15.15 5.48136 14.82 5.63136 14.54L6.99136 12.09L3.39136 4.5H1.39136V2.5ZM7.39136 18.5C7.92179 18.5 8.4305 18.7107 8.80557 19.0858C9.18064 19.4609 9.39136 19.9696 9.39136 20.5C9.39136 21.0304 9.18064 21.5391 8.80557 21.9142C8.4305 22.2893 7.92179 22.5 7.39136 22.5C6.86092 22.5 6.35222 22.2893 5.97714 21.9142C5.60207 21.5391 5.39136 21.0304 5.39136 20.5C5.39136 19.39 6.28136 18.5 7.39136 18.5ZM16.3914 11.5L19.1714 6.5H6.53136L8.89136 11.5H16.3914Z" fill="black"/>
</svg>
