<svg width="38" height="39" viewBox="0 0 38 39" fill="none" xmlns="http://www.w3.org/2000/svg">
<path fill-rule="evenodd" clip-rule="evenodd" d="M16.1389 15.6302L19 11.0528L21.8611 15.6302C21.9589 15.7869 22.088 15.9218 22.2403 16.0264C22.3925 16.131 22.5647 16.2032 22.7461 16.2384C22.9274 16.2736 23.1141 16.2711 23.2944 16.231C23.4748 16.191 23.6449 16.1142 23.7943 16.0055L29.9376 11.5373L27.5785 23.9285C27.5612 24.0188 27.513 24.1002 27.4422 24.1589C27.3715 24.2175 27.2825 24.2497 27.1906 24.2499H10.811C10.7188 24.2501 10.6294 24.2181 10.5583 24.1594C10.4872 24.1007 10.4388 24.019 10.4215 23.9285L8.0623 11.5357L14.2056 16.0039C14.355 16.1123 14.525 16.1889 14.7052 16.2288C14.8854 16.2687 15.0718 16.2712 15.253 16.236C15.4342 16.2008 15.6062 16.1287 15.7583 16.0242C15.9104 15.9198 16.0394 15.7851 16.1373 15.6287M20.14 8.39599C20.019 8.20229 19.8508 8.04254 19.6511 7.9318C19.4514 7.82105 19.2268 7.76294 18.9984 7.76294C18.77 7.76294 18.5454 7.82105 18.3457 7.9318C18.146 8.04254 17.9777 8.20229 17.8568 8.39599L14.7091 13.4357L7.35614 8.08724C6.36972 7.36999 5.0128 8.22974 5.24239 9.42674L8.08764 24.3734C8.20854 25.007 8.5467 25.5786 9.04384 25.9896C9.54098 26.4006 10.1659 26.6253 10.811 26.6249H27.1906C27.8355 26.6248 28.4603 26.3998 28.9571 25.9885C29.454 25.5772 29.7918 25.0055 29.9123 24.3718L32.7576 9.42674C32.9871 8.22974 31.6318 7.36841 30.6454 8.08724L23.2908 13.4357L20.14 8.39599ZM9.49997 28.9999C9.18503 28.9999 8.88298 29.125 8.66028 29.3477C8.43758 29.5704 8.31247 29.8725 8.31247 30.1874C8.31247 30.5024 8.43758 30.8044 8.66028 31.0271C8.88298 31.2498 9.18503 31.3749 9.49997 31.3749H28.5C28.8149 31.3749 29.117 31.2498 29.3397 31.0271C29.5624 30.8044 29.6875 30.5024 29.6875 30.1874C29.6875 29.8725 29.5624 29.5704 29.3397 29.3477C29.117 29.125 28.8149 28.9999 28.5 28.9999H9.49997Z" fill="url(#paint0_linear_1996_1002)"/>
<defs>
<linearGradient id="paint0_linear_1996_1002" x1="19" y1="7.76294" x2="19" y2="31.3749" gradientUnits="userSpaceOnUse">
<stop stop-color="white"/>
<stop offset="1" stop-color="white" stop-opacity="0"/>
</linearGradient>
</defs>
</svg>
