<svg width="21" height="21" viewBox="0 0 21 21" fill="none" xmlns="http://www.w3.org/2000/svg">
<path d="M9.72876 19.8181L20.35 11.06C20.6999 10.7682 20.9206 10.3501 20.9642 9.89663C21.0078 9.44312 20.8708 8.99071 20.5829 8.63757L19.019 6.74091C18.8931 6.59223 18.7141 6.49859 18.5202 6.47995C18.3263 6.4613 18.1327 6.51913 17.9808 6.64109C17.6287 6.93144 17.1757 7.07002 16.7214 7.02634C16.2671 6.98266 15.8488 6.76031 15.5584 6.40819C15.2681 6.05607 15.1295 5.60304 15.1732 5.14874C15.2168 4.69445 15.4392 4.27612 15.7913 3.98577C15.94 3.85987 16.0336 3.68089 16.0523 3.48697C16.0709 3.29304 16.0131 3.0995 15.8911 2.94759L14.3272 1.05093C14.0353 0.701067 13.6173 0.480395 13.1638 0.436793C12.7103 0.39319 12.2579 0.530176 11.9048 0.818026L1.28347 9.5761C0.933608 9.86793 0.712934 10.286 0.669332 10.7395C0.625731 11.193 0.762717 11.6454 1.05057 11.9985L2.61451 13.8952C2.7404 14.0439 2.91938 14.1375 3.11331 14.1561C3.30723 14.1748 3.50077 14.117 3.65269 13.995C4.00481 13.7046 4.45784 13.5661 4.91213 13.6097C5.36643 13.6534 5.78476 13.8758 6.07511 14.2279C6.36546 14.58 6.50404 15.0331 6.46036 15.4873C6.41668 15.9416 6.19433 16.36 5.84221 16.6503C5.69353 16.7762 5.5999 16.9552 5.58125 17.1491C5.56261 17.343 5.62043 17.5366 5.74239 17.6885L7.30633 19.5852C7.59817 19.935 8.01619 20.1557 8.4697 20.1993C8.9232 20.2429 9.37561 20.1059 9.72876 19.8181ZM18.2939 8.17999L19.445 9.57593C19.4864 9.62623 19.5062 9.69095 19.5 9.75585C19.4937 9.82075 19.462 9.88051 19.4117 9.92199L8.79039 18.6801C8.74009 18.7215 8.67537 18.7413 8.61047 18.7351C8.54557 18.7289 8.48581 18.6971 8.44433 18.6468L7.29327 17.2509C7.72495 16.6775 7.95107 15.9755 7.93522 15.258C7.91936 14.5405 7.66245 13.8492 7.20587 13.2955C6.74928 12.7418 6.1196 12.3579 5.41825 12.2056C4.71691 12.0533 3.98472 12.1416 3.33962 12.4561L2.18856 11.0602C2.14708 11.0099 2.12729 10.9451 2.13353 10.8802C2.13977 10.8153 2.17153 10.7556 2.22183 10.7141L12.8431 1.95602C12.8934 1.91454 12.9581 1.89475 13.023 1.90099C13.0879 1.90723 13.1477 1.93899 13.1892 1.98929L14.3402 3.38523C13.9086 3.95858 13.6824 4.66055 13.6983 5.37806C13.7142 6.09558 13.9711 6.78687 14.4276 7.34059C14.8842 7.89431 15.5139 8.27822 16.2153 8.43049C16.9166 8.58276 17.6488 8.49452 18.2939 8.17999Z" fill="white"/>
</svg>
