<svg width="30" height="33" viewBox="0 0 30 33" fill="none" xmlns="http://www.w3.org/2000/svg">
<rect y="3.33984" width="29.3912" height="29.3912" rx="14.6956" fill="url(#paint0_linear_10058_2150)"/>
<path d="M17.7199 26.5521C13.5451 21.9133 16.3283 19.1301 16.3283 19.1301C17.1855 21.4151 20.0392 20.9856 20.0392 20.9856L21.685 22.2473C21.8621 22.3608 22.0761 22.402 22.2828 22.3623C22.4894 22.3226 22.673 22.205 22.7954 22.0339L24.0265 20.5477C24.1587 20.3689 24.2247 20.1498 24.2131 19.9278C24.2016 19.7057 24.1134 19.4946 23.9635 19.3305L22.7741 18.0622C22.2219 17.4668 21.8612 16.7192 21.7388 15.9163C21.5885 14.9552 20.9669 14.0274 20.3982 13.4782L19.5753 12.6358L20.503 9.85254C20.503 9.85254 18.1132 9.88037 17.256 11.708C11.6897 12.1719 7.51489 15.9163 7.51489 26.5521" stroke="white" stroke-width="1.33596" stroke-linecap="round" stroke-linejoin="round"/>
<defs>
<linearGradient id="paint0_linear_10058_2150" x1="-4.25673e-08" y1="17.6156" x2="29.3912" y2="17.6156" gradientUnits="userSpaceOnUse">
<stop stop-color="#FCA20D"/>
<stop offset="1" stop-color="#FFCD0C"/>
</linearGradient>
</defs>
</svg>
