<svg width="30" height="30" viewBox="0 0 30 30" fill="none" xmlns="http://www.w3.org/2000/svg">
<path d="M10.7964 18.2704C10.7964 17.616 11.327 17.0855 11.9814 17.0855C12.6359 17.0855 13.1664 17.616 13.1664 18.2704V20.4776C13.1591 21.143 12.9806 21.7956 12.6487 22.3723C12.3321 22.9225 11.8847 23.3844 11.348 23.7216C10.6627 24.2344 10.1048 24.8988 9.71793 25.6627C9.50409 26.0849 9.3483 26.5318 9.24811 26.9911H20.1135C20.0133 26.5317 19.8568 26.085 19.6429 25.6627C19.2557 24.8983 18.6973 24.2338 18.0112 23.7209C17.4753 23.3837 17.0284 22.922 16.7121 22.3723C16.3802 21.7956 16.2017 21.143 16.1944 20.4776V18.2704C16.1944 17.6161 16.7251 17.0856 17.3794 17.0855C18.0338 17.0855 18.5644 17.616 18.5644 18.2704V20.4514C18.5672 20.7108 18.6371 20.9656 18.7665 21.1904C18.8797 21.3871 19.0353 21.5555 19.2217 21.6834L19.3034 21.7359L19.4022 21.8014C20.3935 22.5357 21.2001 23.4913 21.7575 24.5919C22.1404 25.3479 22.3985 26.158 22.5243 26.9911H25.4767C26.1312 26.9911 26.6617 27.5217 26.6617 28.1761C26.6617 28.8305 26.1312 29.3611 25.4767 29.3611H3.88409C3.22964 29.3611 2.69911 28.8305 2.69911 28.1761C2.69911 27.5217 3.22964 26.9911 3.88409 26.9911H6.8365C6.96234 26.1581 7.22048 25.3478 7.60334 24.5919C8.16073 23.4914 8.96738 22.5357 9.95863 21.8014L10.0574 21.7359C10.2802 21.6031 10.4657 21.4153 10.5951 21.1904C10.7245 20.9656 10.7936 20.7108 10.7964 20.4514V18.2704ZM26.9911 7.25772C26.9911 6.67728 26.7605 6.12059 26.35 5.71015C25.9396 5.29971 25.3829 5.06913 24.8025 5.06906H22.7781C22.1237 5.06906 21.5932 4.53853 21.5932 3.88409C21.5932 3.22964 22.1237 2.69911 22.7781 2.69911H24.8025C26.0115 2.69918 27.1708 3.17963 28.0257 4.03452C28.8806 4.88942 29.361 6.04873 29.3611 7.25772C29.3611 8.46681 28.8806 9.62673 28.0257 10.4817C27.1708 11.3365 26.0114 11.817 24.8025 11.8171H22.7781C22.1238 11.8171 21.5933 11.2865 21.5932 10.6321C21.5932 9.97768 22.1237 9.44715 22.7781 9.44715H24.8025C25.3828 9.44708 25.9396 9.21642 26.35 8.80606C26.7605 8.39556 26.9911 7.83826 26.9911 7.25772Z" fill="#FCA20D"/>
<path d="M21.5926 2.53427C21.5926 2.49072 21.5756 2.44859 21.5448 2.41778C21.514 2.387 21.4719 2.36995 21.4283 2.36995H7.93301C7.88948 2.36995 7.84736 2.38708 7.81652 2.41778C7.78572 2.44859 7.76799 2.49072 7.76792 2.53427V10.6316C7.76792 12.4649 8.49671 14.2233 9.79302 15.5196C11.0893 16.8158 12.8472 17.5439 14.6803 17.544C16.5135 17.544 18.272 16.816 19.5683 15.5196C20.8646 14.2233 21.5932 12.4654 21.5932 10.6321L21.5926 2.53427ZM2.36995 7.25798C2.36995 7.83845 2.60062 8.39505 3.01104 8.80554C3.42148 9.21598 3.97817 9.44657 4.55861 9.44663H5.39797V5.06932H4.55861C3.97817 5.06939 3.42148 5.29997 3.01104 5.71041C2.60062 6.1209 2.36995 6.6775 2.36995 7.25798ZM23.9626 10.6316C23.9626 13.0934 22.9847 15.4545 21.2439 17.1953C19.5032 18.936 17.1421 19.9139 14.6803 19.9139C12.2185 19.9139 9.85733 18.936 8.11662 17.1953C6.6577 15.7362 5.73722 13.8411 5.47666 11.8166H4.55861C3.34974 11.8165 2.19028 11.3367 1.33541 10.4819C0.480459 9.62699 0 8.46706 0 7.25798C0 6.04889 0.480459 4.88896 1.33541 4.03401C2.19028 3.17928 3.34974 2.69944 4.55861 2.69937H5.39797V2.53427C5.39804 1.86217 5.66564 1.21741 6.14089 0.742153C6.61618 0.266997 7.26093 0 7.93301 0H21.4283C22.1005 0 22.7451 0.266916 23.2204 0.742153C23.6957 1.21741 23.9625 1.86217 23.9626 2.53427V10.6316Z" fill="#FCA20D"/>
</svg>
