<svg width="22" height="21" viewBox="0 0 22 21" fill="none" xmlns="http://www.w3.org/2000/svg">
<path d="M9.10163 19.8993L20.3157 11.9142C20.6853 11.6479 20.935 11.2465 21.0106 10.7972C21.0861 10.3479 20.9815 9.88695 20.7193 9.51433L19.2934 7.51182C19.1783 7.35461 19.0064 7.24856 18.8143 7.21624C18.6222 7.18393 18.425 7.22792 18.2649 7.33884C17.8931 7.60356 17.4314 7.70975 16.9813 7.63406C16.5313 7.55836 16.1297 7.30698 15.865 6.93521C15.6003 6.56344 15.4941 6.10174 15.5698 5.65168C15.6455 5.20161 15.8969 4.80005 16.2686 4.53533C16.4258 4.42026 16.5319 4.24835 16.5642 4.05623C16.5965 3.86411 16.5525 3.66697 16.4416 3.5068L15.0157 1.5043C14.7493 1.13467 14.348 0.884991 13.8987 0.809427C13.4494 0.733864 12.9884 0.838513 12.6158 1.10067L1.40177 9.08571C1.03215 9.35207 0.78247 9.75344 0.706906 10.2027C0.631343 10.652 0.735994 11.113 0.998149 11.4856L2.42405 13.4881C2.53912 13.6453 2.71102 13.7514 2.90314 13.7837C3.09527 13.816 3.29241 13.772 3.45257 13.6611C3.82434 13.3964 4.28604 13.2902 4.73611 13.3659C5.18617 13.4416 5.58774 13.6929 5.85246 14.0647C6.11718 14.4365 6.22337 14.8982 6.14768 15.3482C6.07198 15.7983 5.8206 16.1999 5.44883 16.4646C5.29163 16.5797 5.18557 16.7516 5.15325 16.9437C5.12094 17.1358 5.16493 17.333 5.27585 17.4931L6.70175 19.4956C6.96811 19.8653 7.36948 20.1149 7.81877 20.1905C8.26805 20.2661 8.72902 20.1614 9.10163 19.8993ZM18.4683 8.89602L19.5178 10.3699C19.5556 10.423 19.5708 10.4889 19.56 10.5532C19.5492 10.6175 19.5133 10.6749 19.4601 10.7127L8.24609 18.6977C8.19298 18.7356 8.12703 18.7507 8.06273 18.7399C7.99844 18.7291 7.94107 18.6932 7.90325 18.6401L6.85379 17.1662C7.32494 16.6249 7.60014 15.9406 7.63506 15.2238C7.66999 14.507 7.46261 13.7992 7.04632 13.2146C6.63004 12.63 6.02908 12.2025 5.34026 12.001C4.65143 11.7995 3.91484 11.8358 3.24912 12.1039L2.19965 10.6301C2.16184 10.5769 2.14667 10.511 2.15748 10.4467C2.16829 10.3824 2.2042 10.325 2.25731 10.2872L13.4714 2.30217C13.5245 2.26436 13.5904 2.24919 13.6547 2.26C13.719 2.27081 13.7764 2.30673 13.8142 2.35984L14.8637 3.83368C14.3925 4.37507 14.1173 5.05928 14.0824 5.77612C14.0475 6.49296 14.2549 7.20069 14.6711 7.78531C15.0874 8.36993 15.6884 8.79742 16.3772 8.9989C17.066 9.20039 17.8026 9.16415 18.4683 8.89602Z" fill="white"/>
</svg>
