<svg width="71" height="71" viewBox="0 0 71 71" fill="none" xmlns="http://www.w3.org/2000/svg">
<path d="M35.15 0C44.4591 0 53.387 3.69802 59.9695 10.2806C66.552 16.8631 70.25 25.7909 70.25 35.1C70.25 44.4091 66.552 53.3369 59.9695 59.9194C53.387 66.502 44.4591 70.2 35.15 70.2C25.841 70.2 16.9131 66.502 10.3306 59.9194C3.74807 53.3369 0.0500488 44.4091 0.0500488 35.1C0.0500488 25.7909 3.74807 16.8631 10.3306 10.2806C16.9131 3.69802 25.841 0 35.15 0ZM30.7776 42.0247L22.9804 34.2225C22.7008 33.943 22.369 33.7212 22.0038 33.57C21.6386 33.4187 21.2471 33.3408 20.8518 33.3408C20.4565 33.3408 20.0651 33.4187 19.6998 33.57C19.3346 33.7212 19.0028 33.943 18.7232 34.2225C18.1587 34.787 17.8416 35.5527 17.8416 36.3511C17.8416 37.1494 18.1587 37.9151 18.7232 38.4796L28.6515 48.4079C28.9303 48.6888 29.2619 48.9118 29.6272 49.064C29.9925 49.2161 30.3843 49.2945 30.7801 49.2945C31.1758 49.2945 31.5677 49.2161 31.933 49.064C32.2983 48.9118 32.6299 48.6888 32.9087 48.4079L53.4672 27.8443C53.7505 27.566 53.9758 27.2343 54.1303 26.8684C54.2847 26.5025 54.3652 26.1096 54.367 25.7125C54.3689 25.3153 54.292 24.9218 54.141 24.5545C53.99 24.1871 53.7678 23.8534 53.4871 23.5724C53.2064 23.2914 52.8729 23.0687 52.5058 22.9173C52.1387 22.7658 51.7452 22.6886 51.348 22.6899C50.9509 22.6913 50.5579 22.7713 50.1919 22.9253C49.8258 23.0793 49.4938 23.3043 49.2151 23.5872L30.7776 42.0247Z" fill="#49BF00"/>
</svg>
